<svg width="84" height="59" viewBox="0 0 84 59" fill="none" xmlns="http://www.w3.org/2000/svg">
<path d="M57.4515 58.9637H23.7248C23.568 58.9646 23.4128 58.9335 23.2685 58.8722C23.1243 58.8109 22.9941 58.7207 22.8859 58.6071C18.7991 54.1699 15.9567 48.7304 14.6467 42.8398C14.316 41.3517 14.0971 39.8409 13.9917 38.32C13.6814 34.2172 14.1493 30.0927 15.3707 26.1639C16.8404 21.4579 19.2616 17.1048 22.4837 13.3752L22.748 13.0646L22.8399 12.9611C22.948 12.8313 23.0833 12.7269 23.2362 12.6554C23.3891 12.5838 23.556 12.5468 23.7248 12.5471H57.4515C57.6203 12.5468 57.7871 12.5838 57.94 12.6554C58.0929 12.7269 58.2282 12.8313 58.3363 12.9611L58.4397 13.0646C58.5316 13.1682 58.6351 13.2832 58.7385 13.4212C60.2461 15.1556 61.578 17.0356 62.7144 19.0335L65.208 24.2893C66.8873 28.7688 67.5735 33.5602 67.219 38.3315C67.2243 38.4004 67.2243 38.4696 67.219 38.5385L64.1164 49.9472C64.0944 50.0419 64.0636 50.1343 64.0244 50.2232C62.5392 53.3093 60.5941 56.1517 58.2558 58.6531C58.0381 58.8572 57.7497 58.9686 57.4515 58.9637ZM24.2764 56.6635H56.8999C58.8561 54.4677 60.5031 52.0146 61.7951 49.3721L61.8871 49.0846L64.8863 38.067C65.2022 33.6987 64.5752 29.3136 63.0477 25.2093L60.6345 20.126C59.5757 18.2824 58.3362 16.5487 56.9344 14.9508H24.2419C21.2161 18.4429 18.9432 22.5226 17.5655 26.9344C16.4317 30.5886 15.9951 34.4237 16.2785 38.2395C16.3771 39.6489 16.5846 41.0485 16.899 42.4258C18.0894 47.7198 20.6132 52.6211 24.2304 56.6635H24.2764Z" fill="url(#paint0_linear_26_183)"/>
<path d="M62.8983 50.8331C62.7401 50.8373 62.5831 50.8058 62.4387 50.7411C62.1792 50.629 61.9701 50.425 61.8514 50.1683C61.7326 49.9116 61.7126 49.6201 61.7951 49.3495L61.8871 49.062C61.9431 48.8838 62.0418 48.722 62.1744 48.5905L62.3467 48.441C62.5336 48.26 62.7763 48.1478 63.0351 48.1228C63.2939 48.0977 63.5536 48.1612 63.7716 48.303C63.9946 48.4589 64.1551 48.689 64.2246 48.9522C64.294 49.2154 64.2679 49.4948 64.1509 49.7406C64.0819 49.9016 63.99 50.0626 63.898 50.2351C63.7998 50.4149 63.6553 50.5651 63.4795 50.6703C63.3037 50.7754 63.1031 50.8316 62.8983 50.8331Z" fill="url(#paint1_linear_26_183)"/>
<path d="M65.5528 41.1491C65.3326 41.1485 65.1172 41.0847 64.9323 40.9651C64.7241 40.8334 64.5637 40.6382 64.4747 40.4084C64.3858 40.1786 64.373 39.9262 64.4382 39.6885L64.9093 37.9519C64.9596 37.6469 65.1289 37.3744 65.3799 37.1943C65.631 37.0142 65.9432 36.9413 66.248 36.9916C66.5528 37.042 66.8251 37.2114 67.005 37.4627C67.185 37.7139 67.2578 38.0264 67.2075 38.3315C67.2075 38.849 67.1041 39.355 67.0466 39.8495C67.0128 40.1409 66.8689 40.4084 66.6445 40.5971L66.5181 40.7121L66.3227 40.8846C66.1069 41.0638 65.8331 41.1579 65.5528 41.1491Z" fill="url(#paint2_linear_26_183)"/>
<path d="M59.5084 15.2846H57.7962C57.6245 15.2852 57.4549 15.2473 57.2998 15.1736C57.1447 15.1 57.0081 14.9925 56.8999 14.8591H24.2419C24.1337 14.9925 23.9971 15.1 23.842 15.1736C23.6869 15.2473 23.5172 15.2852 23.3456 15.2846H21.6449C21.3401 15.2846 21.0478 15.1634 20.8323 14.9478C20.6168 14.7321 20.4958 14.4396 20.4958 14.1345C20.4953 12.2855 21.2266 10.5115 22.5297 9.20077C23.1752 8.55086 23.9436 8.03614 24.79 7.68664C25.6364 7.33714 26.5438 7.15986 27.4594 7.16515H53.6939C55.5407 7.16515 57.312 7.89943 58.6179 9.20644C59.9239 10.5135 60.6575 12.2861 60.6575 14.1345C60.6575 14.4396 60.5365 14.7321 60.321 14.9478C60.1055 15.1634 59.8132 15.2846 59.5084 15.2846ZM23.7248 12.5474H57.4515C57.7402 12.5453 58.0192 12.6521 58.2329 12.8465C57.9514 11.8716 57.361 11.0147 56.5506 10.4049C55.7402 9.79504 54.7537 9.46528 53.7398 9.46528H27.4594C26.8405 9.45708 26.2263 9.57408 25.6537 9.80925C25.081 10.0444 24.5618 10.3929 24.127 10.8339C23.5858 11.3921 23.1911 12.0756 22.9779 12.8235C23.186 12.6453 23.4509 12.5474 23.7248 12.5474Z" fill="url(#paint3_linear_26_183)"/>
<path d="M40.4445 9.45351C39.5109 9.45123 38.5989 9.17208 37.8237 8.65132C37.0486 8.13056 36.445 7.39155 36.0893 6.52765C35.7336 5.66374 35.6417 4.71372 35.8252 3.79757C36.0088 2.88143 36.4595 2.04028 37.1205 1.38038C37.7814 0.72048 38.623 0.271441 39.5388 0.0899878C40.4546 -0.0914651 41.4037 0.00280966 42.266 0.360902C43.1283 0.718995 43.8653 1.32484 44.3837 2.1019C44.9022 2.87896 45.1789 3.79237 45.1789 4.72675C45.1758 5.98142 44.6757 7.18366 43.7881 8.06977C42.9006 8.95588 41.6981 9.45351 40.4445 9.45351ZM40.4445 2.30011C39.9654 2.30239 39.4978 2.44664 39.1006 2.71465C38.7034 2.98267 38.3944 3.36245 38.2126 3.80606C38.0309 4.24966 37.9845 4.73721 38.0793 5.20717C38.1742 5.67713 38.406 6.10844 38.7456 6.44666C39.0851 6.78488 39.5172 7.01486 39.9872 7.10756C40.4572 7.20026 40.9441 7.15154 41.3865 6.96754C41.8289 6.78354 42.2069 6.47251 42.4728 6.07371C42.7387 5.6749 42.8806 5.2062 42.8806 4.72675C42.8776 4.08211 42.6196 3.46491 42.163 3.01016C41.7065 2.5554 41.0886 2.30011 40.4445 2.30011Z" fill="url(#paint4_linear_26_183)"/>
<path d="M15.7729 43.7028C15.6145 43.7008 15.4582 43.6661 15.3138 43.6008C15.1695 43.5355 15.0401 43.441 14.934 43.3233L0.305711 27.5099C0.119513 27.3085 0.0113859 27.0472 0.000849584 26.773C-0.00968671 26.4988 0.0780621 26.2299 0.248255 26.0148L6.23517 18.4014C6.32834 18.2816 6.4443 18.1814 6.57636 18.1066C6.70842 18.0318 6.85397 17.984 7.0046 17.9658C7.15524 17.9476 7.30798 17.9595 7.45401 18.0007C7.60004 18.0419 7.73647 18.1116 7.85543 18.2059L17.2323 25.6008C17.4482 25.7712 17.596 26.0134 17.6487 26.2835C17.7014 26.5536 17.6556 26.8337 17.5195 27.0729C16.0716 29.6605 15.6465 33.5592 16.313 38.0675C16.3934 38.608 16.4623 39.1485 16.5313 39.6776C16.622 40.5698 16.7601 41.4566 16.945 42.3342C16.9855 42.5057 16.9862 42.6841 16.9469 42.8558C16.9076 43.0276 16.8294 43.188 16.7184 43.3246C16.6073 43.4613 16.4664 43.5707 16.3065 43.6442C16.1465 43.7178 15.9718 43.7535 15.7959 43.7488L15.7729 43.7028ZM2.64992 26.6704L14.0952 39.1025L13.9917 38.447C13.3023 33.8468 13.6585 29.856 15.0259 26.8659L7.32684 20.7015L2.64992 26.6704Z" fill="url(#paint5_linear_26_183)"/>
<path d="M62.9787 50.6032C62.7691 50.6014 62.5634 50.5459 62.3812 50.4422C62.1592 50.3092 61.9885 50.1052 61.8967 49.8631C61.8049 49.621 61.7975 49.355 61.8756 49.1081L64.4381 39.7006C64.4997 39.4761 64.6279 39.2756 64.8058 39.1255L64.9322 39.0105L65.1391 38.8265C74.6768 30.1551 75.2973 26.8199 75.3203 26.2333C74.6653 25.7158 70.8042 25.0833 64.2772 25.9343C64.0428 25.9578 63.8069 25.9086 63.6014 25.7934C63.3958 25.6782 63.2306 25.5026 63.1281 25.2903L60.6805 20.115C60.6015 19.956 60.5605 19.7808 60.5605 19.6032C60.5605 19.4256 60.6015 19.2505 60.6805 19.0914C60.7617 18.9326 60.8787 18.7948 61.0223 18.689C61.1659 18.5832 61.3322 18.5123 61.5079 18.4819C67.9889 17.3318 79.3192 16.4578 82.4333 22.9212C85.3406 29.028 79.7789 37.1819 63.8636 50.2122L63.7716 50.2812C63.6692 50.3872 63.5457 50.4706 63.4092 50.526C63.2726 50.5815 63.126 50.6078 62.9787 50.6032ZM66.564 40.6436L65.0586 46.1984C77.6185 35.5373 82.4793 28.4185 80.3305 23.9102C78.0322 19.1144 68.6209 19.7355 63.3694 20.46L64.8058 23.4962C67.9085 23.1397 76.1247 22.4611 77.4462 25.2328C78.0437 26.8084 77.3772 30.7531 66.6444 40.5056L66.564 40.6436Z" fill="url(#paint6_linear_26_183)"/>
<path d="M36.8707 28.7513H23.7592C23.4545 28.7513 23.1622 28.6301 22.9467 28.4144C22.7312 28.1988 22.6101 27.9062 22.6101 27.6012C22.6101 27.2962 22.7312 27.0037 22.9467 26.788C23.1622 26.5723 23.4545 26.4512 23.7592 26.4512H36.8707C37.1755 26.4512 37.4677 26.5723 37.6832 26.788C37.8987 27.0037 38.0198 27.2962 38.0198 27.6012C38.0198 27.9062 37.8987 28.1988 37.6832 28.4144C37.4677 28.6301 37.1755 28.7513 36.8707 28.7513Z" fill="url(#paint7_linear_26_183)"/>
<path d="M45.8454 43.035H30.3092C30.0045 43.035 29.7122 42.9138 29.4967 42.6981C29.2812 42.4825 29.1601 42.1899 29.1601 41.8849C29.1601 41.5799 29.2812 41.2874 29.4967 41.0717C29.7122 40.856 30.0045 40.7349 30.3092 40.7349H45.8454C46.1501 40.7349 46.4424 40.856 46.6579 41.0717C46.8734 41.2874 46.9945 41.5799 46.9945 41.8849C46.9945 42.1899 46.8734 42.4825 46.6579 42.6981C46.4424 42.9138 46.1501 43.035 45.8454 43.035Z" fill="url(#paint8_linear_26_183)"/>
<defs>
<linearGradient id="paint0_linear_26_183" x1="40.6043" y1="12.5471" x2="40.6043" y2="58.9638" gradientUnits="userSpaceOnUse">
<stop stop-color="#96C11F"/>
<stop offset="1" stop-color="#7CA900"/>
</linearGradient>
<linearGradient id="paint1_linear_26_183" x1="63.0039" y1="48.1174" x2="63.0039" y2="50.8335" gradientUnits="userSpaceOnUse">
<stop stop-color="#96C11F"/>
<stop offset="1" stop-color="#7CA900"/>
</linearGradient>
<linearGradient id="paint2_linear_26_183" x1="65.8101" y1="36.9761" x2="65.8101" y2="41.1497" gradientUnits="userSpaceOnUse">
<stop stop-color="#96C11F"/>
<stop offset="1" stop-color="#7CA900"/>
</linearGradient>
<linearGradient id="paint3_linear_26_183" x1="40.5766" y1="7.16504" x2="40.5766" y2="15.2846" gradientUnits="userSpaceOnUse">
<stop stop-color="#96C11F"/>
<stop offset="1" stop-color="#7CA900"/>
</linearGradient>
<linearGradient id="paint4_linear_26_183" x1="40.456" y1="0" x2="40.456" y2="9.45351" gradientUnits="userSpaceOnUse">
<stop stop-color="#96C11F"/>
<stop offset="1" stop-color="#7CA900"/>
</linearGradient>
<linearGradient id="paint5_linear_26_183" x1="8.83499" y1="17.9575" x2="8.83499" y2="43.7492" gradientUnits="userSpaceOnUse">
<stop stop-color="#96C11F"/>
<stop offset="1" stop-color="#7CA900"/>
</linearGradient>
<linearGradient id="paint6_linear_26_183" x1="71.8665" y1="17.6763" x2="71.8665" y2="50.6037" gradientUnits="userSpaceOnUse">
<stop stop-color="#96C11F"/>
<stop offset="1" stop-color="#7CA900"/>
</linearGradient>
<linearGradient id="paint7_linear_26_183" x1="30.315" y1="26.4512" x2="30.315" y2="28.7513" gradientUnits="userSpaceOnUse">
<stop stop-color="#96C11F"/>
<stop offset="1" stop-color="#7CA900"/>
</linearGradient>
<linearGradient id="paint8_linear_26_183" x1="38.0773" y1="40.7349" x2="38.0773" y2="43.035" gradientUnits="userSpaceOnUse">
<stop stop-color="#96C11F"/>
<stop offset="1" stop-color="#7CA900"/>
</linearGradient>
</defs>
</svg>
