<svg width="31" height="34" viewBox="0 0 31 34" fill="none" xmlns="http://www.w3.org/2000/svg">
<path d="M15.4391 1C15.7659 1.19426 15.8692 1.49532 15.8583 1.85753C15.8505 2.1199 15.8583 2.38226 15.8583 2.65934C16.3481 2.69958 16.8015 2.72667 17.2556 2.77388C19.7801 3.04166 22.0686 3.93479 24.135 5.39368C24.4456 5.61193 24.5123 5.87585 24.3384 6.12119C24.1645 6.36653 23.8913 6.38742 23.5831 6.16917C21.9871 5.04695 20.2521 4.25521 18.33 3.91003C17.4574 3.75369 16.5616 3.70339 15.672 3.63141C15.0634 3.58342 14.9058 3.44798 14.8957 2.83966C14.8957 2.67559 14.8957 2.51074 14.8957 2.27236L12.0871 4.40535L14.8957 6.53447C14.8957 6.26204 14.8903 6.07475 14.8957 5.88823C14.9143 5.36891 15.1038 5.18162 15.6223 5.18471C18.7399 5.20019 21.4755 6.23883 23.7733 8.33467C26.3436 10.6828 27.664 13.6238 27.7432 17.1065C27.7494 17.3921 27.7929 17.656 28.0258 17.8511C28.1322 17.9489 28.2655 18.013 28.4086 18.035C28.5517 18.0571 28.6981 18.0362 28.8292 17.9749C28.9819 17.92 29.1113 17.8149 29.196 17.6769C29.2806 17.5389 29.3156 17.3762 29.295 17.2157C29.2057 16.2583 29.1654 15.2886 28.9736 14.3521C28.4582 11.8329 27.2518 9.65966 25.4687 7.80451C25.4245 7.75808 25.3787 7.71396 25.3383 7.6652C25.1427 7.43302 25.1458 7.17143 25.3429 6.98336C25.3873 6.93683 25.4412 6.90032 25.501 6.87629C25.5607 6.85227 25.6249 6.84128 25.6893 6.84406C25.7536 6.84685 25.8167 6.86335 25.8741 6.89245C25.9315 6.92155 25.982 6.96258 26.0222 7.01277C26.4973 7.53983 26.9887 8.05837 27.4086 8.62722C29.2942 11.1812 30.2312 14.051 30.2545 17.218C30.2623 18.2125 29.5201 18.9818 28.5599 18.9926C27.5771 19.0035 26.8086 18.2659 26.7977 17.2497C26.7767 15.2924 26.3242 13.4489 25.3228 11.7648C23.3945 8.52119 20.5486 6.65056 16.7836 6.20013C16.5414 6.17072 16.2969 6.16221 16.0531 6.14673C16.0027 6.14673 15.9507 6.1506 15.8521 6.15524C15.8521 6.46017 15.8521 6.75272 15.8521 7.0445C15.8521 7.33628 15.7931 7.59864 15.5035 7.74105C15.214 7.88346 14.9601 7.77356 14.735 7.60174C13.7095 6.8278 12.6802 6.06237 11.6679 5.27372C11.0337 4.77994 11.0096 4.0563 11.6252 3.57104C12.6623 2.75221 13.7313 1.96511 14.7886 1.1664C14.8716 1.10371 14.9648 1.05495 15.051 1H15.4391Z" fill="url(#paint0_linear_40_66)" stroke="url(#paint1_linear_40_66)" stroke-width="0.2"/>
<path d="M18.3308 23.5264C15.221 24.0488 14.0612 23.7748 11.5398 21.9205C9.96396 22.8871 8.47505 22.6062 7.77174 21.2239C7.19884 20.0978 7.5862 18.3603 9.39339 17.8232C9.2031 16.4827 9.3991 15.1159 9.95853 13.8823C8.75218 13.3405 8.16531 12.4389 8.39354 11.1239C8.47803 10.6552 8.70816 10.2248 9.0514 9.89354C9.39465 9.56231 9.83363 9.34701 10.3063 9.27809C11.4847 9.11866 12.3448 9.60547 12.896 10.6449C16.0167 9.20379 18.9184 9.47003 21.3761 11.9459C23.4449 14.0301 23.8113 16.5741 22.9077 19.3579C23.8897 20.0545 24.4324 21.008 24.3648 22.2579C24.3167 23.1495 23.934 23.8832 23.2679 24.4729C21.9863 25.6114 19.5619 25.6238 18.3308 23.5264ZM22.0049 18.9601C22.4125 17.9107 22.4885 16.8504 22.3216 15.763C21.6921 11.6611 16.8224 9.40579 13.281 11.5837C13.1762 11.6572 13.1037 11.768 13.0784 11.8932C12.9146 12.9296 12.2393 13.6671 11.2285 13.9256C11.0753 13.9713 10.946 14.0749 10.8683 14.2143C10.3615 15.2712 10.1751 16.4525 10.3319 17.6135C10.3552 17.8 10.4484 17.8534 10.6021 17.9037C11.862 18.3162 12.5428 19.5646 12.1733 20.8246C12.1088 21.0459 12.1477 21.169 12.3122 21.3106C13.4658 22.3067 14.8049 22.8322 16.3272 22.8322C16.8993 22.8322 17.4714 22.713 18.0459 22.648C17.7105 20.467 19.5037 18.4555 22.0049 18.9555V18.9601ZM23.417 22.0621C23.4179 21.6212 23.2875 21.19 23.0423 20.8232C22.7971 20.4563 22.4481 20.1703 22.0396 20.0014C21.6312 19.8325 21.1816 19.7884 20.748 19.8746C20.3143 19.9607 19.9161 20.1734 19.6038 20.4855C19.2915 20.7976 19.0792 21.1951 18.9938 21.6277C18.9084 22.0603 18.9538 22.5084 19.1242 22.9152C19.2946 23.322 19.5823 23.6692 19.9509 23.9128C20.3195 24.1563 20.7523 24.2853 21.1945 24.2833C21.7846 24.2811 22.3497 24.0458 22.7663 23.6291C23.1828 23.2124 23.4168 22.6481 23.417 22.0598V22.0621ZM11.3155 20.1775C11.3161 19.8984 11.2337 19.6252 11.0787 19.3927C10.9237 19.1602 10.7031 18.9787 10.4447 18.8711C10.1863 18.7635 9.90166 18.7347 9.62684 18.7883C9.35201 18.8419 9.09927 18.9755 8.90056 19.1722C8.70184 19.3689 8.56605 19.6199 8.51035 19.8935C8.45465 20.1671 8.48153 20.4511 8.58759 20.7094C8.69366 20.9678 8.87415 21.1891 9.10627 21.3453C9.3384 21.5014 9.61174 21.5855 9.89177 21.5869C10.2677 21.5871 10.6284 21.439 10.8952 21.1749C11.1619 20.9109 11.313 20.5523 11.3155 20.1775ZM10.6944 13.0193C10.9747 13.0229 11.2497 12.9433 11.4846 12.7908C11.7194 12.6383 11.9036 12.4197 12.0137 12.1628C12.1238 11.9058 12.1549 11.622 12.103 11.3474C12.0511 11.0728 11.9186 10.8197 11.7223 10.6203C11.5259 10.4208 11.2746 10.284 11.0002 10.2272C10.7258 10.1703 10.4406 10.196 10.1808 10.3009C9.92107 10.4058 9.69841 10.5853 9.54108 10.8166C9.38375 11.0479 9.29885 11.3205 9.29713 11.5999C9.29362 11.7851 9.3272 11.9692 9.3959 12.1413C9.4646 12.3134 9.56703 12.4702 9.69722 12.6023C9.82741 12.7345 9.98272 12.8395 10.1541 12.9111C10.3255 12.9827 10.5094 13.0195 10.6952 13.0193H10.6944Z" fill="url(#paint2_linear_40_66)" stroke="url(#paint3_linear_40_66)" stroke-width="0.2"/>
<path d="M16.3574 32.2673L19.1653 30.1367L16.3512 28.0044C16.3512 28.2807 16.3574 28.4773 16.3512 28.6739C16.3326 29.1708 16.1401 29.3604 15.6386 29.3565C12.2439 29.3294 9.33439 28.1221 6.96284 25.7066C4.71162 23.4119 3.57126 20.6303 3.50838 17.4161C3.49906 16.934 3.30189 16.6329 2.9347 16.5292C2.81405 16.4932 2.68631 16.4879 2.56304 16.5135C2.43977 16.5392 2.32486 16.595 2.22869 16.6761C2.13252 16.7571 2.05814 16.8608 2.01225 16.9777C1.96637 17.0946 1.95044 17.2211 1.9659 17.3457C2.05284 18.3766 2.12504 19.4183 2.34085 20.426C2.77168 22.4313 3.68848 24.2261 4.98021 25.8258C5.01359 25.8668 5.04697 25.9078 5.07802 25.9504C5.26666 26.2151 5.24881 26.4844 5.033 26.657C4.81719 26.8296 4.52143 26.7901 4.33434 26.5401C3.94154 26.0146 3.53555 25.4945 3.18933 24.9381C1.75786 22.6364 1.03824 20.1234 1.0002 17.4146C0.98623 16.3705 1.6942 15.5726 2.66921 15.5501C3.68304 15.5285 4.44768 16.2722 4.46088 17.3302C4.49193 19.8842 5.27831 22.1813 6.879 24.1734C8.81972 26.592 11.3489 27.989 14.4462 28.3388C14.7482 28.3728 15.0533 28.386 15.4018 28.4123C15.4018 28.0764 15.3964 27.7831 15.4018 27.4905C15.4073 27.198 15.4655 26.938 15.7566 26.794C16.0477 26.65 16.3 26.7661 16.5251 26.9387C17.5506 27.7127 18.5799 28.4773 19.5914 29.2667C20.2443 29.776 20.2381 30.4996 19.5813 31.0104C18.5768 31.7914 17.5568 32.5529 16.5399 33.3183C16.307 33.4956 16.0461 33.6279 15.7449 33.4685C15.4601 33.3191 15.408 33.0506 15.4042 32.765C15.4003 32.4794 15.4042 32.1961 15.4042 31.8788C14.9182 31.8393 14.4563 31.813 13.9968 31.7612C11.0694 31.4291 8.47737 30.3116 6.21295 28.4332C5.95212 28.2181 5.9071 27.9278 6.08487 27.7119C6.26263 27.496 6.55607 27.4797 6.81923 27.7003C8.53016 29.1259 10.4616 30.1189 12.6445 30.5646C13.6055 30.7605 14.5976 30.8193 15.578 30.9091C16.1898 30.9648 16.3473 31.0933 16.3582 31.6985C16.3598 31.8618 16.3574 32.0266 16.3574 32.2673Z" fill="url(#paint4_linear_40_66)" stroke="url(#paint5_linear_40_66)" stroke-width="0.2"/>
<path d="M15.3615 14.9132C15.3606 14.6854 15.4048 14.4598 15.4917 14.2492C15.5787 14.0386 15.7065 13.8472 15.8679 13.6861C16.0293 13.5249 16.2211 13.3972 16.4322 13.3103C16.6433 13.2234 16.8696 13.1789 17.098 13.1795C17.4445 13.1774 17.7837 13.278 18.0727 13.4685C18.3617 13.659 18.5873 13.9308 18.721 14.2494C18.8547 14.5681 18.8903 14.9191 18.8234 15.258C18.7565 15.5969 18.5901 15.9083 18.3453 16.1527C18.1005 16.3971 17.7884 16.5634 17.4486 16.6306C17.1087 16.6977 16.7566 16.6626 16.4368 16.5298C16.117 16.3969 15.844 16.1723 15.6526 15.8845C15.4611 15.5966 15.3598 15.2586 15.3615 14.9132ZM17.112 15.7049C17.2155 15.7029 17.3175 15.6807 17.4124 15.6393C17.5072 15.598 17.593 15.5385 17.6647 15.4642C17.7365 15.3898 17.7929 15.3021 17.8306 15.206C17.8684 15.11 17.8868 15.0074 17.8848 14.9043C17.8828 14.8011 17.8605 14.6994 17.819 14.6048C17.7776 14.5103 17.7179 14.4248 17.6433 14.3532C17.5687 14.2817 17.4808 14.2255 17.3844 14.1878C17.2881 14.1502 17.1852 14.1318 17.0817 14.1338C16.8728 14.1378 16.6739 14.2244 16.529 14.3746C16.3841 14.5247 16.3049 14.7261 16.3089 14.9345C16.313 15.1428 16.3998 15.341 16.5504 15.4855C16.701 15.63 16.903 15.7089 17.112 15.7049Z" fill="url(#paint6_linear_40_66)" stroke="url(#paint7_linear_40_66)" stroke-width="0.2"/>
<defs>
<linearGradient id="paint0_linear_40_66" x1="20.7161" y1="1" x2="20.7161" y2="18.9928" gradientUnits="userSpaceOnUse">
<stop stop-color="#96C11F"/>
<stop offset="1" stop-color="#7CA900"/>
</linearGradient>
<linearGradient id="paint1_linear_40_66" x1="20.7161" y1="1" x2="20.7161" y2="18.9928" gradientUnits="userSpaceOnUse">
<stop stop-color="#96C11F"/>
<stop offset="1" stop-color="#7CA900"/>
</linearGradient>
<linearGradient id="paint2_linear_40_66" x1="15.9484" y1="9.24841" x2="15.9484" y2="25.2388" gradientUnits="userSpaceOnUse">
<stop stop-color="#96C11F"/>
<stop offset="1" stop-color="#7CA900"/>
</linearGradient>
<linearGradient id="paint3_linear_40_66" x1="15.9484" y1="9.24841" x2="15.9484" y2="25.2388" gradientUnits="userSpaceOnUse">
<stop stop-color="#96C11F"/>
<stop offset="1" stop-color="#7CA900"/>
</linearGradient>
<linearGradient id="paint4_linear_40_66" x1="10.5388" y1="15.5497" x2="10.5388" y2="33.54" gradientUnits="userSpaceOnUse">
<stop stop-color="#96C11F"/>
<stop offset="1" stop-color="#7CA900"/>
</linearGradient>
<linearGradient id="paint5_linear_40_66" x1="10.5388" y1="15.5497" x2="10.5388" y2="33.54" gradientUnits="userSpaceOnUse">
<stop stop-color="#96C11F"/>
<stop offset="1" stop-color="#7CA900"/>
</linearGradient>
<linearGradient id="paint6_linear_40_66" x1="17.1089" y1="13.1795" x2="17.1089" y2="16.6638" gradientUnits="userSpaceOnUse">
<stop stop-color="#96C11F"/>
<stop offset="1" stop-color="#7CA900"/>
</linearGradient>
<linearGradient id="paint7_linear_40_66" x1="17.1089" y1="13.1795" x2="17.1089" y2="16.6638" gradientUnits="userSpaceOnUse">
<stop stop-color="#96C11F"/>
<stop offset="1" stop-color="#7CA900"/>
</linearGradient>
</defs>
</svg>
