<svg width="46" height="57" viewBox="0 0 46 57" fill="none" xmlns="http://www.w3.org/2000/svg">
<path d="M33.9976 53.2348H3.76856C2.82348 53.2842 1.8971 52.9593 1.19122 52.331C0.485351 51.7026 0.0571845 50.8216 0 49.88C0.0013866 49.4143 0.104922 48.9545 0.303352 48.5329C0.501782 48.1112 0.790305 47.738 1.1487 47.4392C1.87636 46.8286 2.79722 46.4941 3.7484 46.4951H33.9775C34.9241 46.4513 35.8496 46.7827 36.552 47.4169C37.2543 48.0512 37.6763 48.9366 37.7259 49.88C37.719 50.3423 37.614 50.7979 37.4177 51.2169C37.2215 51.6359 36.9384 52.0086 36.5872 52.3107C35.8594 52.9119 34.9428 53.239 33.9976 53.2348ZM3.76856 48.4838C3.29768 48.4829 2.84135 48.6464 2.47878 48.9459C2.34211 49.0564 2.23153 49.1957 2.15491 49.3536C2.07828 49.5116 2.03749 49.6844 2.03542 49.8599C2.09315 50.2639 2.30386 50.6306 2.62429 50.8846C2.94472 51.1387 3.35056 51.2608 3.75848 51.2259H33.9875C34.4508 51.241 34.9043 51.0915 35.2672 50.8041C35.4012 50.6883 35.5104 50.5468 35.5883 50.388C35.6662 50.2293 35.7112 50.0565 35.7207 49.88C35.6629 49.4733 35.4511 49.1041 35.1288 48.8481C34.8065 48.5922 34.3981 48.4691 33.9875 48.5039L3.76856 48.4838Z" fill="url(#paint0_linear_26_168)"/>
<path d="M29.8965 48.504H7.85956C7.69383 48.5058 7.53053 48.4643 7.38597 48.3835C2.76092 45.9025 0 41.5935 0 36.8627V20.159C0 19.8926 0.106161 19.6371 0.29513 19.4487C0.484098 19.2604 0.740394 19.1545 1.00764 19.1545H36.7384C37.0056 19.1545 37.2619 19.2604 37.4509 19.4487C37.6399 19.6371 37.746 19.8926 37.746 20.159V24.1064C37.746 24.3728 37.6399 24.6283 37.4509 24.8166C37.2619 25.005 37.0056 25.1108 36.7384 25.1108L34.1488 25.161C33.947 25.161 33.7518 25.2329 33.5984 25.3636C33.4451 25.4944 33.3437 25.6754 33.3124 25.8742C33.3075 25.9478 33.3075 26.0216 33.3124 26.0952C33.3466 26.3365 33.4677 26.5572 33.6531 26.7161C33.8385 26.8751 34.0756 26.9614 34.3201 26.959H36.7283C36.8619 26.9555 36.9948 26.9786 37.1194 27.0269C37.244 27.0752 37.3576 27.1477 37.4538 27.2402C37.5502 27.3344 37.6267 27.447 37.6786 27.5712C37.7305 27.6954 37.7569 27.8288 37.7561 27.9634V36.933C37.7561 37.1994 37.6499 37.4548 37.461 37.6432C37.272 37.8316 37.0157 37.9374 36.7485 37.9374C35.892 37.9374 34.9851 37.9374 34.048 37.8771C33.9302 37.8658 33.8112 37.8787 33.6986 37.915C33.586 37.9513 33.482 38.0102 33.393 38.0881C33.2175 38.2463 33.1093 38.4655 33.0907 38.7008C33.0783 38.8225 33.0905 38.9454 33.1266 39.0623C33.1626 39.1792 33.2219 39.2877 33.3008 39.3814C33.3798 39.4751 33.4768 39.552 33.5861 39.6076C33.6954 39.6632 33.8148 39.6964 33.9372 39.7052C34.5619 39.7052 35.2471 39.7755 36.033 39.7755C36.1948 39.7756 36.3542 39.8145 36.4977 39.8889C36.6412 39.9633 36.7646 40.0711 36.8575 40.2031C36.9504 40.3351 37.0101 40.4875 37.0314 40.6473C37.0528 40.8072 37.0352 40.9698 36.9802 41.1214C35.7503 44.2857 33.4032 46.8932 30.3802 48.4538C30.2245 48.505 30.0595 48.5222 29.8965 48.504ZM8.12154 46.4951H29.6446C31.6866 45.3884 33.3683 43.7225 34.4914 41.694H33.7961C33.0259 41.6398 32.3086 41.2841 31.8007 40.7044C31.2928 40.1248 31.0357 39.3683 31.0855 38.6003C31.106 38.2144 31.2061 37.8369 31.3795 37.4913C31.5528 37.1456 31.7958 36.8393 32.0932 36.5915C32.3811 36.3391 32.7164 36.1462 33.0796 36.0238C33.4428 35.9014 33.8267 35.852 34.2092 35.8783L35.761 35.9386V28.9578H34.3301C33.5556 28.9589 32.8101 28.6636 32.2477 28.1328C31.6852 27.602 31.3485 26.8762 31.3072 26.1052C31.2969 25.9279 31.2969 25.7502 31.3072 25.5729C31.4116 24.9088 31.7478 24.3029 32.2566 23.8619C32.7654 23.4208 33.4141 23.173 34.0883 23.1622H35.7005V21.1534H2.01527V36.8627C2.06999 38.8672 2.66606 40.82 3.74071 42.5152C4.81535 44.2104 6.32877 45.5854 8.12154 46.4951Z" fill="url(#paint1_linear_26_168)"/>
<path d="M29.8865 48.5139H7.8797C7.72584 48.5176 7.57347 48.4831 7.43634 48.4135C7.2265 48.3182 7.0558 48.154 6.95273 47.9484C6.84965 47.7428 6.82044 47.5082 6.86996 47.2837C6.91948 47.0592 7.04474 46.8584 7.22484 46.7149C7.40493 46.5714 7.62897 46.4937 7.85955 46.495H29.8965C30.128 46.4914 30.3536 46.5673 30.5355 46.71C30.7174 46.8528 30.8445 47.0536 30.8953 47.2787C30.9462 47.5038 30.9177 47.7395 30.8147 47.9462C30.7117 48.1528 30.5405 48.3178 30.3298 48.4135C30.1916 48.4802 30.04 48.5145 29.8865 48.5139Z" fill="url(#paint2_linear_26_168)"/>
<path d="M29.3423 56.9918H8.41374C7.46977 57.0355 6.54678 56.7051 5.84635 56.0728C5.14592 55.4405 4.72496 54.5576 4.67541 53.6169C4.675 52.8817 4.93557 52.1701 5.41098 51.608C5.50376 51.4909 5.62152 51.3959 5.75573 51.3299C5.88994 51.2639 6.03722 51.2285 6.18686 51.2263H31.5793C31.7256 51.2275 31.8699 51.2605 32.0022 51.323C32.1344 51.3854 32.2514 51.4758 32.3451 51.5879C32.8272 52.1467 33.0919 52.8597 33.0907 53.5968C33.0894 54.064 32.986 54.5252 32.7876 54.9485C32.5892 55.3718 32.3007 55.7468 31.942 56.0476C31.2189 56.6661 30.2951 57.0016 29.3423 56.9918ZM6.75114 53.2352C6.71146 53.3517 6.69104 53.4738 6.69068 53.5968C6.74368 54.0029 6.95314 54.3726 7.27473 54.6276C7.59631 54.8825 8.0048 55.0027 8.41374 54.9628H29.3423C29.8095 54.9703 30.2638 54.8098 30.622 54.5108C30.759 54.3998 30.8704 54.2608 30.9486 54.103C31.0269 53.9453 31.0701 53.7726 31.0755 53.5968C31.0751 53.4738 31.0547 53.3517 31.015 53.2352H6.75114Z" fill="url(#paint3_linear_26_168)"/>
<path d="M36.5973 41.724H35.9927C35.237 41.724 34.4712 41.724 33.7961 41.6637C33.0259 41.6096 32.3086 41.2538 31.8007 40.6742C31.2928 40.0945 31.0357 39.3381 31.0856 38.5701C31.106 38.1842 31.2061 37.8067 31.3795 37.461C31.5528 37.1154 31.7958 36.8091 32.0932 36.5612C32.3811 36.3089 32.7164 36.116 33.0796 35.9936C33.4428 35.8712 33.8267 35.8217 34.2092 35.8481C35.0859 35.8983 35.9524 35.9184 36.7585 35.9083C37.5646 35.8983 38.1692 35.9083 38.8947 35.8481C39.2517 33.7785 39.4136 31.6801 39.3784 29.5804C39.3916 29.3563 39.3916 29.1316 39.3784 28.9075H39.1769L34.2596 28.9878C33.485 28.9889 32.7396 28.6936 32.1771 28.1628C31.6146 27.632 31.278 26.9062 31.2367 26.1352C31.2263 25.9579 31.2263 25.7802 31.2367 25.6029C31.3409 24.9352 31.6778 24.3255 32.1883 23.8809C32.6988 23.4364 33.3501 23.1854 34.0278 23.1722L39.0056 23.1018C40.2985 22.9891 41.5945 23.2804 42.7137 23.9355C45.1824 25.5225 45.1824 28.576 45.1824 29.5905C45.2495 32.5364 44.9448 35.479 44.2755 38.3491C44.1139 39.2478 43.6433 40.0623 42.9445 40.6526C42.2457 41.2429 41.3624 41.572 40.4465 41.5834C39.1063 41.6838 37.8367 41.724 36.5973 41.724ZM33.9775 37.8469C33.762 37.8465 33.554 37.9251 33.393 38.0679C33.2175 38.2261 33.1093 38.4453 33.0907 38.6806C33.0783 38.8023 33.0905 38.9252 33.1266 39.0421C33.1627 39.159 33.2219 39.2675 33.3008 39.3612C33.3798 39.4549 33.4768 39.5318 33.5861 39.5874C33.6954 39.643 33.8148 39.6762 33.9372 39.685C34.5619 39.685 35.2471 39.7553 36.033 39.7553H36.5973C37.7863 39.7553 39.0056 39.7553 40.2248 39.6247C40.7771 39.609 41.3087 39.4112 41.7363 39.0622C42.0434 38.7289 42.2465 38.3135 42.3207 37.867C42.9559 35.1519 43.2437 32.3676 43.1772 29.5804C43.1772 28.6865 43.1772 26.5671 41.6254 25.6129C40.8425 25.1822 39.944 25.0066 39.0559 25.1107L34.1588 25.1911C33.9555 25.1914 33.7592 25.2647 33.6056 25.3974C33.452 25.5302 33.3515 25.7137 33.3225 25.9142C33.316 25.9844 33.316 26.055 33.3225 26.1252C33.3567 26.3665 33.4778 26.5872 33.6632 26.7462C33.8486 26.9051 34.0856 26.9914 34.3301 26.989L39.0862 26.9086C39.5287 26.8694 39.9747 26.9033 40.4062 27.0091C41.4138 27.2702 41.4138 28.8673 41.4138 29.5905C41.4658 32.0892 41.2359 34.5858 40.7286 37.0333C40.6798 37.2417 40.5655 37.4291 40.4024 37.5682C40.2393 37.7074 40.0358 37.7909 39.8217 37.8067C38.673 37.8971 37.5646 37.9373 36.4562 37.9272C35.7106 37.9272 34.9146 37.9272 34.0984 37.867L33.9775 37.8469ZM39.9427 28.9778H40.1039H39.9427Z" fill="url(#paint4_linear_26_168)"/>
<path d="M23.9213 38.3793H22.0471C21.4979 38.3793 20.9541 38.2714 20.4468 38.062C19.9394 37.8525 19.4785 37.5454 19.0902 37.1584C18.7018 36.7713 18.3938 36.3118 18.1837 35.8061C17.9735 35.3003 17.8654 34.7583 17.8654 34.2109V30.374C17.8654 29.2684 18.3059 28.2082 19.0902 27.4265C19.8744 26.6447 20.938 26.2056 22.0471 26.2056H23.9213C25.0303 26.2056 26.0939 26.6447 26.8782 27.4265C27.6624 28.2082 28.1029 29.2684 28.1029 30.374V34.2109C28.1029 35.3164 27.6624 36.3766 26.8782 37.1584C26.0939 37.9401 25.0303 38.3793 23.9213 38.3793ZM22.0471 28.2144C21.4725 28.2144 20.9214 28.4419 20.5152 28.8469C20.1089 29.2519 19.8806 29.8012 19.8806 30.374V34.2109C19.8806 34.7836 20.1089 35.3329 20.5152 35.7379C20.9214 36.1429 21.4725 36.3704 22.0471 36.3704H23.9213C24.495 36.3678 25.0445 36.1394 25.4502 35.735C25.8559 35.3306 26.085 34.7828 26.0877 34.2109V30.374C26.0877 29.8012 25.8594 29.2519 25.4531 28.8469C25.0469 28.4419 24.4958 28.2144 23.9213 28.2144H22.0471Z" fill="url(#paint5_linear_26_168)"/>
<path d="M22.9842 28.2144C22.7169 28.2144 22.4606 28.1086 22.2717 27.9202C22.0827 27.7319 21.9765 27.4764 21.9765 27.21V20.179C21.9765 19.9126 22.0827 19.6571 22.2717 19.4688C22.4606 19.2804 22.7169 19.1746 22.9842 19.1746C23.2514 19.1746 23.5077 19.2804 23.6967 19.4688C23.8856 19.6571 23.9918 19.9126 23.9918 20.179V27.21C23.9918 27.4764 23.8856 27.7319 23.6967 27.9202C23.5077 28.1086 23.2514 28.2144 22.9842 28.2144Z" fill="url(#paint6_linear_26_168)"/>
<path d="M24.1833 31.5994H20.979C20.7117 31.5994 20.4554 31.4936 20.2665 31.3052C20.0775 31.1169 19.9713 30.8614 19.9713 30.595C19.9713 30.3286 20.0775 30.0731 20.2665 29.8848C20.4554 29.6964 20.7117 29.5906 20.979 29.5906H24.1833C24.4505 29.5906 24.7068 29.6964 24.8958 29.8848C25.0847 30.0731 25.1909 30.3286 25.1909 30.595C25.1909 30.8614 25.0847 31.1169 24.8958 31.3052C24.7068 31.4936 24.4505 31.5994 24.1833 31.5994Z" fill="url(#paint7_linear_26_168)"/>
<path d="M24.8483 34.3516H21.8959C21.6287 34.3516 21.3724 34.2458 21.1834 34.0574C20.9944 33.8691 20.8883 33.6136 20.8883 33.3472C20.8883 33.0808 20.9944 32.8253 21.1834 32.637C21.3724 32.4486 21.6287 32.3428 21.8959 32.3428H24.8483C25.1155 32.3428 25.3718 32.4486 25.5608 32.637C25.7498 32.8253 25.8559 33.0808 25.8559 33.3472C25.8559 33.6136 25.7498 33.8691 25.5608 34.0574C25.3718 34.2458 25.1155 34.3516 24.8483 34.3516Z" fill="url(#paint8_linear_26_168)"/>
<path d="M11.3661 14.6044C11.0989 14.6044 10.8426 14.4986 10.6536 14.3102C10.4646 14.1219 10.3585 13.8664 10.3585 13.6C10.3585 11.8523 12.2226 11.1693 13.8751 10.5867C14.5301 10.3456 16.0718 9.78315 16.0718 9.4316C16.0718 9.08005 14.5301 8.51757 13.8751 8.27651C12.2226 7.67385 10.3585 6.98079 10.3585 5.26322C10.3585 3.54564 12.2226 2.82245 13.8751 2.24992C14.5301 1.91846 16.1221 1.35598 16.1221 1.00443C16.1221 0.738039 16.2283 0.482558 16.4173 0.294191C16.6062 0.105824 16.8625 0 17.1298 0C17.397 0 17.6533 0.105824 17.8423 0.294191C18.0313 0.482558 18.1374 0.738039 18.1374 1.00443C18.1374 2.75214 16.2733 3.4452 14.6208 4.01772C13.9658 4.25879 12.4241 4.82127 12.4241 5.17282C12.4241 5.52437 13.9658 6.08685 14.6208 6.32791C16.2733 6.94062 18.1374 7.62363 18.1374 9.34121C18.1374 11.0588 16.2733 11.782 14.6208 12.3545C13.9658 12.5956 12.4241 13.1681 12.4241 13.5096C12.4374 13.6532 12.4194 13.798 12.3715 13.9341C12.3236 14.0702 12.2468 14.1944 12.1464 14.2983C12.046 14.4022 11.9244 14.4833 11.7897 14.5361C11.6551 14.5889 11.5106 14.6122 11.3661 14.6044Z" fill="url(#paint9_linear_26_168)"/>
<path d="M22.4299 14.6044C22.1627 14.6044 21.9064 14.4985 21.7174 14.3102C21.5285 14.1218 21.4223 13.8663 21.4223 13.5999C21.4223 11.8522 23.2864 11.1692 24.9289 10.5866C25.5939 10.3456 27.1255 9.78309 27.1255 9.43153C27.1255 9.07998 25.5939 8.5175 24.9289 8.27644C23.2864 7.67378 21.4223 6.98072 21.4223 5.26315C21.4223 3.54557 23.2864 2.82238 24.9289 2.24986C25.5939 2.00879 27.1255 1.44631 27.1255 1.09476C27.1255 0.828371 27.2317 0.57289 27.4206 0.384523C27.6096 0.196156 27.8659 0.090332 28.1332 0.090332C28.4004 0.090332 28.6567 0.196156 28.8457 0.384523C29.0346 0.57289 29.1408 0.828371 29.1408 1.09476C29.1408 2.84247 27.2767 3.53553 25.6342 4.10805C24.9692 4.34912 23.4376 4.9116 23.4376 5.26315C23.4376 5.6147 24.9692 6.17718 25.6342 6.41824C27.2767 7.03095 29.1408 7.71396 29.1408 9.43153C29.1408 11.1491 27.2767 11.8723 25.6342 12.4448C24.9692 12.6859 23.4376 13.2584 23.4376 13.5999C23.4376 13.8663 23.3314 14.1218 23.1424 14.3102C22.9535 14.4985 22.6972 14.6044 22.4299 14.6044Z" fill="url(#paint10_linear_26_168)"/>
<path d="M18.873 32.222H1.00764C0.740394 32.222 0.484098 32.1162 0.29513 31.9278C0.106161 31.7394 0 31.484 0 31.2176C0 30.9512 0.106161 30.6957 0.29513 30.5073C0.484098 30.319 0.740394 30.2131 1.00764 30.2131H18.873C19.1402 30.2131 19.3965 30.319 19.5855 30.5073C19.7745 30.6957 19.8806 30.9512 19.8806 31.2176C19.8806 31.484 19.7745 31.7394 19.5855 31.9278C19.3965 32.1162 19.1402 32.222 18.873 32.222Z" fill="url(#paint11_linear_26_168)"/>
<path d="M36.7384 32.222H27.0953C26.8281 32.222 26.5718 32.1162 26.3828 31.9278C26.1938 31.7394 26.0877 31.484 26.0877 31.2176C26.0877 30.9512 26.1938 30.6957 26.3828 30.5073C26.5718 30.319 26.8281 30.2131 27.0953 30.2131H36.7384C37.0056 30.2131 37.2619 30.319 37.4509 30.5073C37.6398 30.6957 37.746 30.9512 37.746 31.2176C37.746 31.484 37.6398 31.7394 37.4509 31.9278C37.2619 32.1162 37.0056 32.222 36.7384 32.222Z" fill="url(#paint12_linear_26_168)"/>
<defs>
<linearGradient id="paint0_linear_26_168" x1="18.8629" y1="46.4912" x2="18.8629" y2="53.2397" gradientUnits="userSpaceOnUse">
<stop stop-color="#96C11F"/>
<stop offset="1" stop-color="#7CA900"/>
</linearGradient>
<linearGradient id="paint1_linear_26_168" x1="18.8781" y1="19.1545" x2="18.8781" y2="48.511" gradientUnits="userSpaceOnUse">
<stop stop-color="#96C11F"/>
<stop offset="1" stop-color="#7CA900"/>
</linearGradient>
<linearGradient id="paint2_linear_26_168" x1="18.8832" y1="46.4949" x2="18.8832" y2="48.5142" gradientUnits="userSpaceOnUse">
<stop stop-color="#96C11F"/>
<stop offset="1" stop-color="#7CA900"/>
</linearGradient>
<linearGradient id="paint3_linear_26_168" x1="18.8831" y1="51.2263" x2="18.8831" y2="56.9956" gradientUnits="userSpaceOnUse">
<stop stop-color="#96C11F"/>
<stop offset="1" stop-color="#7CA900"/>
</linearGradient>
<linearGradient id="paint4_linear_26_168" x1="38.1355" y1="23.0781" x2="38.1355" y2="41.724" gradientUnits="userSpaceOnUse">
<stop stop-color="#96C11F"/>
<stop offset="1" stop-color="#7CA900"/>
</linearGradient>
<linearGradient id="paint5_linear_26_168" x1="22.9842" y1="26.2056" x2="22.9842" y2="38.3793" gradientUnits="userSpaceOnUse">
<stop stop-color="#96C11F"/>
<stop offset="1" stop-color="#7CA900"/>
</linearGradient>
<linearGradient id="paint6_linear_26_168" x1="22.9842" y1="19.1746" x2="22.9842" y2="28.2144" gradientUnits="userSpaceOnUse">
<stop stop-color="#96C11F"/>
<stop offset="1" stop-color="#7CA900"/>
</linearGradient>
<linearGradient id="paint7_linear_26_168" x1="22.5811" y1="29.5906" x2="22.5811" y2="31.5994" gradientUnits="userSpaceOnUse">
<stop stop-color="#96C11F"/>
<stop offset="1" stop-color="#7CA900"/>
</linearGradient>
<linearGradient id="paint8_linear_26_168" x1="23.3721" y1="32.3428" x2="23.3721" y2="34.3516" gradientUnits="userSpaceOnUse">
<stop stop-color="#96C11F"/>
<stop offset="1" stop-color="#7CA900"/>
</linearGradient>
<linearGradient id="paint9_linear_26_168" x1="14.2479" y1="0" x2="14.2479" y2="14.6059" gradientUnits="userSpaceOnUse">
<stop stop-color="#96C11F"/>
<stop offset="1" stop-color="#7CA900"/>
</linearGradient>
<linearGradient id="paint10_linear_26_168" x1="25.2815" y1="0.090332" x2="25.2815" y2="14.6044" gradientUnits="userSpaceOnUse">
<stop stop-color="#96C11F"/>
<stop offset="1" stop-color="#7CA900"/>
</linearGradient>
<linearGradient id="paint11_linear_26_168" x1="9.94032" y1="30.2131" x2="9.94032" y2="32.222" gradientUnits="userSpaceOnUse">
<stop stop-color="#96C11F"/>
<stop offset="1" stop-color="#7CA900"/>
</linearGradient>
<linearGradient id="paint12_linear_26_168" x1="31.9168" y1="30.2131" x2="31.9168" y2="32.222" gradientUnits="userSpaceOnUse">
<stop stop-color="#96C11F"/>
<stop offset="1" stop-color="#7CA900"/>
</linearGradient>
</defs>
</svg>
