<svg width="50" height="50" viewBox="0 0 50 50" fill="none" xmlns="http://www.w3.org/2000/svg">
<path d="M10.8958 26.1458C19.9269 22.8671 29.8231 22.8671 38.8542 26.1458L40.125 12.1666C31.2292 8.35413 18.5208 8.35413 9.625 12.1666L10.8958 26.1458Z" stroke="white" stroke-width="3" stroke-miterlimit="2" stroke-linecap="round" stroke-linejoin="round"/>
<path d="M24.875 23.6042L28.6875 17.25" stroke="white" stroke-width="3" stroke-miterlimit="2" stroke-linecap="round" stroke-linejoin="round"/>
<path d="M2 43.9375C2 44.9486 2.40167 45.9184 3.11666 46.6333C3.83164 47.3483 4.80136 47.75 5.8125 47.75H43.9375C44.9486 47.75 45.9184 47.3483 46.6333 46.6333C47.3483 45.9184 47.75 44.9486 47.75 43.9375V5.8125C47.75 4.80136 47.3483 3.83164 46.6333 3.11666C45.9184 2.40167 44.9486 2 43.9375 2H5.8125C4.80136 2 3.83164 2.40167 3.11666 3.11666C2.40167 3.83164 2 4.80136 2 5.8125V43.9375Z" stroke="white" stroke-width="3" stroke-miterlimit="2" stroke-linecap="round" stroke-linejoin="round"/>
<path d="M18.5208 24.1824C22.7311 23.5211 27.0189 23.5211 31.2292 24.1824" stroke="white" stroke-width="3" stroke-miterlimit="2" stroke-linecap="round" stroke-linejoin="round"/>
</svg>
