<svg width="29" height="30" viewBox="0 0 29 30" fill="none" xmlns="http://www.w3.org/2000/svg">
<g clip-path="url(#clip0_1702_9)">
<path d="M9.58646 0C12.8587 2.20665 15.6754 4.82192 17.5425 8.28493C18.0639 9.24409 18.4343 10.273 18.6413 11.3378C18.6523 11.3908 18.6669 11.4431 18.6851 11.4943C19.6283 11.2399 20.5489 10.9284 21.4905 10.7491C23.4613 10.3742 25.4499 10.4219 27.4344 10.692C27.6748 10.7249 27.9142 10.7616 28.1524 10.8023C28.2851 10.8165 28.409 10.8733 28.5041 10.9638C28.5992 11.0543 28.66 11.173 28.6767 11.301C29.1143 13.8896 29.1823 16.4673 28.4214 19.0184C27.5138 22.0618 25.398 23.8654 22.2514 24.6004C20.1923 25.0818 18.1057 25.1342 16.0182 24.8579C15.3578 24.7703 14.9153 24.8783 14.4413 25.3597C13.0078 26.8188 11.5102 28.2176 10.0378 29.6399L9.90898 29.7644C9.70963 29.9577 9.48355 30.065 9.19911 29.9538C8.91468 29.8427 8.80285 29.6141 8.80366 29.3237C8.80366 28.2982 8.79718 27.2736 8.80853 26.2481C8.81597 26.1537 8.79667 26.0591 8.75271 25.9744C8.70874 25.8897 8.64176 25.8182 8.55894 25.7675C6.06225 23.9836 3.84918 21.928 2.14421 19.3996C1.14829 17.9256 0.41897 16.3374 0.124813 14.5832C-0.211482 12.5816 0.155607 10.6779 1.00323 8.84775C2.06074 6.56673 3.6628 4.66693 5.5023 2.9409C6.65202 1.85851 7.89679 0.874517 9.22262 0L9.58646 0ZM10.0159 15.3276C10.1383 15.2204 10.2121 15.1609 10.2801 15.0928C10.7528 14.6377 11.2247 14.1824 11.6958 13.7268C11.9964 13.4364 12.2906 13.1405 12.601 12.8611C12.7112 12.758 12.8584 12.7 13.0118 12.6993C13.1652 12.6985 13.313 12.7551 13.4243 12.8571C13.539 12.9626 13.6067 13.1071 13.6129 13.26C13.6191 13.4129 13.5634 13.5621 13.4575 13.6759C13.3862 13.7542 13.3043 13.8325 13.2257 13.9108C12.2177 14.8835 11.2104 15.8565 10.2039 16.8297C10.1294 16.9018 10.0273 16.9973 10.0257 17.0834C10.0111 17.7714 10.0176 18.4611 10.0176 19.2102C10.1351 19.1053 10.2088 19.0458 10.2769 18.98C10.8352 18.4423 11.3862 17.8975 11.9519 17.3667C12.2963 17.0442 12.8262 17.1507 12.9648 17.5609C13.0548 17.8301 12.9583 18.0501 12.7525 18.2474C11.8976 19.0646 11.0451 19.8849 10.2056 20.7162C10.0957 20.8338 10.0315 20.9846 10.0241 21.1429C10.0087 22.1605 10.0159 23.1734 10.0168 24.1894C10.0168 24.2677 10.0289 24.3507 10.0362 24.4384C10.064 24.4316 10.0911 24.4224 10.1172 24.411C10.2696 24.2975 10.4227 24.1847 10.571 24.0673C12.7695 22.3311 14.7314 20.3883 16.1398 17.982C16.9428 16.6082 17.502 15.153 17.5911 13.5601C17.7054 11.5374 17.0514 9.71194 16.0036 8.00235C14.5061 5.55773 12.4502 3.59452 10.1594 1.84344C10.1143 1.81856 10.0661 1.79935 10.0159 1.7863V2.13542C10.0159 3.24853 10.0159 4.36164 10.0159 5.47476C10.0159 5.74247 9.92924 5.95538 9.67479 6.07828C9.25017 6.28415 8.8061 5.98278 8.80366 5.47789C8.79718 4.3546 8.80366 3.23209 8.80366 2.11194V1.74325C8.59378 1.8998 8.43495 2.018 8.28099 2.13855C6.06873 3.87554 4.09958 5.82309 2.68552 8.23953C1.79819 9.75499 1.2123 11.3628 1.21879 13.1295C1.22446 14.8211 1.76172 16.3718 2.59638 17.8372C3.81758 19.9883 5.51121 21.7613 7.40257 23.3722C7.83773 23.7425 8.29395 24.0916 8.76153 24.4681C8.77853 24.4268 8.79155 24.3841 8.80042 24.3405C8.80042 23.2376 8.8069 22.1339 8.79475 21.0309C8.77622 20.9105 8.71526 20.7999 8.62215 20.7178C7.79154 19.9045 6.95282 19.099 6.11735 18.2912C5.76971 17.9546 5.73001 17.6094 6.00634 17.3472C6.28266 17.0849 6.62139 17.1225 6.97876 17.4693C7.50548 17.971 8.0233 18.4736 8.54759 18.98C8.61566 19.0458 8.6894 19.1053 8.80285 19.2047C8.80285 18.5159 8.8142 17.8841 8.79475 17.2532C8.78551 17.095 8.72029 16.9447 8.60999 16.8274C7.59786 15.8309 6.57115 14.847 5.55011 13.8591C5.46907 13.7761 5.33699 13.6955 5.31673 13.5969C5.27702 13.4004 5.22759 13.1554 5.31673 12.998C5.39776 12.854 5.64735 12.7319 5.82725 12.7264C6.00715 12.7209 6.2073 12.8477 6.34182 12.973C7.08977 13.6728 7.81909 14.3906 8.55651 15.1006C8.62296 15.164 8.69589 15.2204 8.80528 15.3135V14.0611C8.80528 13.016 8.80528 11.9718 8.80528 10.9299C8.80528 10.4986 9.12943 10.2137 9.51191 10.2826C9.83605 10.3413 10.0143 10.5722 10.0151 10.9472C10.0151 12.2852 10.0151 13.623 10.0151 14.9605L10.0159 15.3276ZM27.6905 12.692L21.4111 18.7499C22.0253 18.7499 22.6582 18.7429 23.2911 18.7554C23.4493 18.7544 23.6051 18.7921 23.7441 18.865C23.8511 18.9238 23.9337 19.0166 23.978 19.1276C24.0223 19.2386 24.0256 19.361 23.9872 19.474C23.9126 19.7542 23.689 19.917 23.3551 19.9186C22.3649 19.9233 21.3744 19.9233 20.3836 19.9186C20.2947 19.9128 20.2057 19.9262 20.1229 19.9578C20.0401 19.9893 19.9655 20.0382 19.9046 20.101C18.7386 21.2391 17.5635 22.371 16.3918 23.5014C16.3318 23.5593 16.2816 23.6258 16.203 23.7151C18.2921 23.9295 20.3204 23.899 22.3179 23.3753C24.8948 22.7001 26.5482 21.1207 27.278 18.6372C27.6126 17.4693 27.7787 16.2623 27.7715 15.0505C27.7748 14.2654 27.7205 13.4795 27.6905 12.692ZM26.6905 11.7933C25.4853 11.6491 24.2678 11.6265 23.0577 11.726C21.6915 11.8419 20.3641 12.1096 19.1178 12.6928C18.9014 12.7937 18.8042 12.9018 18.8107 13.1499C18.8342 14.0642 18.6721 14.9573 18.4055 15.8333C17.8091 17.8168 16.7103 19.5327 15.3829 21.1272C15.314 21.2102 15.2038 21.3041 15.2062 21.3902C15.22 21.8677 15.2622 22.3436 15.2946 22.8211L15.4072 22.8689C15.4644 22.7762 15.5297 22.6885 15.6025 22.6067C16.6073 21.6305 17.5911 20.6317 18.6348 19.6963C19.121 19.2595 19.3334 18.8102 19.2831 18.173C19.228 17.5131 19.2645 16.8423 19.2774 16.1824C19.2725 16.0298 19.3305 15.8816 19.4387 15.7703C19.5469 15.659 19.6964 15.5938 19.8544 15.589C20.0124 15.5843 20.1658 15.6403 20.281 15.7448C20.3962 15.8493 20.4637 15.9938 20.4687 16.1464C20.4938 16.5941 20.48 17.0442 20.4841 17.4928C20.4841 17.5953 20.4938 17.6971 20.4978 17.7793L26.6905 11.7933ZM14.0604 22.6395C14.0158 22.6505 13.9915 22.6497 13.9794 22.6607C12.7922 23.8312 11.5066 24.9047 10.1359 25.8701C10.1049 25.8919 10.0787 25.9196 10.0591 25.9515C10.0395 25.9834 10.0267 26.0188 10.0216 26.0556C10.0127 26.6755 10.0159 27.2947 10.0159 27.9663C10.1067 27.8959 10.1537 27.8654 10.1934 27.8278C11.4932 26.5753 12.7911 25.3187 14.0871 24.0579C14.1651 23.9653 14.2037 23.8475 14.1949 23.7284C14.1674 23.3714 14.109 23.0137 14.0604 22.6395Z" fill="url(#paint0_linear_1702_9)"/>
<path d="M9.41385 8.79374C9.25527 8.79563 9.10231 8.73701 8.98821 8.63061C8.87411 8.5242 8.80808 8.3786 8.80447 8.22544C8.80595 8.06742 8.87171 7.9163 8.98754 7.80471C9.10337 7.69311 9.25998 7.62999 9.42357 7.62897C9.58173 7.63484 9.73138 7.69969 9.84108 7.80989C9.95078 7.9201 10.012 8.06708 10.0119 8.21996C10.0123 8.29576 9.99713 8.37088 9.96718 8.44094C9.93722 8.511 9.89313 8.5746 9.83745 8.62801C9.78178 8.68143 9.71564 8.72359 9.64291 8.75205C9.57018 8.7805 9.49231 8.79468 9.41385 8.79374Z" fill="url(#paint1_linear_1702_9)"/>
</g>
<defs>
<linearGradient id="paint0_linear_1702_9" x1="14.5011" y1="0" x2="14.5011" y2="29.9987" gradientUnits="userSpaceOnUse">
<stop stop-color="#96C11F"/>
<stop offset="1" stop-color="#7CA900"/>
</linearGradient>
<linearGradient id="paint1_linear_1702_9" x1="9.40818" y1="7.62897" x2="9.40818" y2="8.79378" gradientUnits="userSpaceOnUse">
<stop stop-color="#96C11F"/>
<stop offset="1" stop-color="#7CA900"/>
</linearGradient>
<clipPath id="clip0_1702_9">
<rect width="29" height="30" fill="white"/>
</clipPath>
</defs>
</svg>
