<svg width="52" height="52" viewBox="0 0 52 52" fill="none" xmlns="http://www.w3.org/2000/svg">
<path d="M45.6518 22.7358L36.8002 22.7358C36.372 22.7358 35.9613 22.9049 35.6585 23.2059C35.3557 23.5069 35.1856 23.9151 35.1856 24.3408C35.1856 24.7665 35.3557 25.1748 35.6585 25.4758C35.9613 25.7768 36.372 25.9459 36.8002 25.9459L45.6518 25.9459C46.1646 25.9459 46.6564 26.1484 47.019 26.5088C47.3816 26.8693 47.5853 27.3582 47.5853 27.8679C47.5853 28.3777 47.3816 28.8666 47.019 29.227C46.6564 29.5875 46.1646 29.79 45.6518 29.79L28.647 29.79C28.2188 29.79 27.8081 29.9591 27.5053 30.2601C27.2025 30.5611 27.0324 30.9694 27.0324 31.3951C27.0324 31.8207 27.2025 32.229 27.5053 32.53C27.8081 32.831 28.2188 33.0001 28.647 33.0001L45.6518 33.0001C47.0184 32.9964 48.3276 32.454 49.2924 31.4918C50.2571 30.5297 50.7985 29.2264 50.7978 27.8679C50.7978 25.0383 48.4888 22.7358 45.6518 22.7358Z" fill="white"/>
<path d="M46.8547 15.6814L36.8002 15.6814C36.372 15.6814 35.9613 15.8505 35.6585 16.1515C35.3557 16.4525 35.1856 16.8608 35.1856 17.2865C35.1856 17.7122 35.3557 18.1204 35.6585 18.4214C35.9613 18.7224 36.372 18.8916 36.8002 18.8916L46.8547 18.8915C47.3675 18.8915 47.8593 19.0941 48.2219 19.4545C48.5845 19.815 48.7882 20.3038 48.7882 20.8136C48.7882 21.3234 48.5845 21.8123 48.2219 22.1727C47.8593 22.5332 47.3675 22.7357 46.8547 22.7357L36.8002 22.7357C36.372 22.7357 35.9613 22.9048 35.6585 23.2058C35.3557 23.5068 35.1856 23.915 35.1856 24.3407C35.1856 24.7664 35.3557 25.1747 35.6585 25.4757C35.9613 25.7767 36.372 25.9458 36.8002 25.9458L46.8547 25.9458C49.6917 25.9458 52 23.6439 52 20.8136C52 17.9834 49.6917 15.6814 46.8547 15.6814Z" fill="white"/>
<path d="M45.1244 8.62723L36.5412 8.62723C36.113 8.62723 35.7023 8.79633 35.3995 9.09734C35.0967 9.39835 34.9266 9.8066 34.9266 10.2323C34.9266 10.658 35.0967 11.0662 35.3995 11.3672C35.7023 11.6682 36.113 11.8374 36.5412 11.8374L45.1244 11.8374C45.6372 11.8374 46.129 12.0399 46.4916 12.4003C46.8542 12.7608 47.0579 13.2497 47.0579 13.7594C47.0579 14.2692 46.8542 14.7581 46.4916 15.1185C46.129 15.479 45.6372 15.6815 45.1244 15.6815L36.8002 15.6815C36.372 15.6815 35.9613 15.8506 35.6585 16.1516C35.3557 16.4526 35.1856 16.8609 35.1856 17.2865C35.1856 17.7122 35.3557 18.1205 35.6585 18.4215C35.9613 18.7225 36.372 18.8916 36.8002 18.8916L45.1244 18.8916C47.9621 18.8916 50.2704 16.589 50.2704 13.7594C50.2711 12.4009 49.7297 11.0977 48.7649 10.1355C47.8002 9.17338 46.4909 8.63095 45.1244 8.62723Z" fill="white"/>
<path d="M41.8352 1.57431L11.3314 1.57431C10.9032 1.57431 10.4925 1.74341 10.1897 2.04442C9.88686 2.34543 9.71675 2.75368 9.71675 3.17937C9.71675 3.60506 9.88686 4.01332 10.1897 4.31433C10.4925 4.61533 10.9032 4.78444 11.3314 4.78444L41.8352 4.78443C42.3419 4.79383 42.8246 5.00049 43.1795 5.35999C43.5345 5.71949 43.7333 6.2031 43.7333 6.70683C43.7333 7.21056 43.5345 7.69417 43.1795 8.05367C42.8246 8.41317 42.3419 8.61983 41.8352 8.62923L36.5412 8.62923C36.113 8.62923 35.7023 8.79833 35.3995 9.09934C35.0967 9.40035 34.9266 9.8086 34.9266 10.2343C34.9266 10.66 35.0967 11.0682 35.3995 11.3692C35.7023 11.6703 36.113 11.8394 36.5412 11.8394L41.8352 11.8394C44.6729 11.8394 46.9812 9.53676 46.9812 6.70716C46.9812 3.87757 44.6716 1.57431 41.8352 1.57431Z" fill="white"/>
<path d="M28.6483 29.79C28.4037 29.7898 28.1623 29.8448 27.9422 29.951C27.7222 30.0571 27.5292 30.2116 27.378 30.4027C27.2268 30.5938 27.1212 30.8165 27.0692 31.0541C27.0173 31.2917 27.0203 31.538 27.0781 31.7742L28.0355 35.6906C28.623 38.0781 28.6782 40.5646 28.1969 42.9756C27.6796 45.5022 26.6973 47.3186 25.2764 48.3686C24.9607 48.6079 24.5825 48.7522 24.1867 48.7843C23.7909 48.8164 23.3942 48.735 23.0435 48.5498C22.6833 48.372 22.382 48.0952 22.1752 47.7522C21.9685 47.4093 21.865 47.0147 21.877 46.615C21.9516 42.6024 21.5406 35.1669 17.9339 30.4273C17.806 30.2592 17.6461 30.1177 17.4632 30.011C17.2803 29.9043 17.0781 29.8345 16.868 29.8055C16.4439 29.7469 16.0137 29.8583 15.6721 30.115C15.5029 30.2421 15.3606 30.4011 15.2533 30.5829C15.146 30.7647 15.0757 30.9657 15.0465 31.1745C14.9876 31.5962 15.0996 32.0238 15.3579 32.3634C18.3766 36.3326 18.7156 42.9588 18.6484 46.5555C18.6292 47.5517 18.8912 48.5334 19.4046 49.3892C19.918 50.245 20.6623 50.9407 21.5532 51.3974C22.444 51.8542 23.4457 52.0538 24.4448 51.9735C25.4439 51.8933 26.4004 51.5364 27.2059 50.9434C29.2828 49.4052 30.6808 46.9401 31.3609 43.6162C31.9368 40.7429 31.8727 37.779 31.1732 34.9329L30.2159 31.0165C30.1306 30.6671 29.9297 30.3562 29.6455 30.1338C29.3612 29.9114 29.0101 29.7903 28.6483 29.79Z" fill="white"/>
<path d="M11.3314 2.18976e-05L1.61463 2.2747e-05C1.1864 2.27845e-05 0.775715 0.169121 0.472913 0.470131C0.17011 0.771137 -2.91931e-06 1.17939 -2.88209e-06 1.60508L-1.40319e-07 32.9673C-1.03104e-07 33.393 0.170113 33.8013 0.472916 34.1023C0.775718 34.4033 1.18641 34.5724 1.61463 34.5724L11.3314 34.5724C11.7596 34.5724 12.1703 34.4033 12.4731 34.1023C12.7759 33.8013 12.946 33.393 12.946 32.9673L12.946 1.60173C12.9451 1.17662 12.7746 0.769229 12.4719 0.468943C12.1692 0.168662 11.759 1.80455e-05 11.3314 2.18976e-05ZM3.22927 3.21014L9.71673 3.21014L9.71674 31.3623L3.22927 31.3623L3.22927 3.21014Z" fill="white"/>
<path d="M16.6462 29.79L11.3314 29.79C10.9031 29.79 10.4925 29.9591 10.1897 30.2601C9.88685 30.5611 9.71674 30.9694 9.71674 31.3951C9.71674 31.8208 9.88685 32.229 10.1897 32.53C10.4925 32.831 10.9031 33.0001 11.3314 33.0001L16.6462 33.0001C17.0744 33.0001 17.4851 32.831 17.7879 32.53C18.0907 32.229 18.2608 31.8208 18.2608 31.3951C18.2608 30.9694 18.0907 30.5611 17.7879 30.2601C17.4851 29.9591 17.0744 29.79 16.6462 29.79Z" fill="white"/>
</svg>
