<svg width="49" height="49" viewBox="0 0 49 49" fill="none" xmlns="http://www.w3.org/2000/svg">
<path d="M24.5 0.055542C19.6653 0.055542 14.9393 1.48918 10.9194 4.17517C6.89952 6.86116 3.76642 10.6789 1.91628 15.1455C0.0661333 19.6121 -0.417948 24.5271 0.525246 29.2689C1.46844 34.0106 3.79655 38.3662 7.21517 41.7848C10.6338 45.2034 14.9894 47.5316 19.7311 48.4747C24.4729 49.4179 29.3878 48.9339 33.8545 47.0837C38.3211 45.2336 42.1388 42.1005 44.8248 38.0806C47.5108 34.0607 48.9444 29.3346 48.9444 24.5C48.9444 18.0169 46.3691 11.7994 41.7848 7.21516C37.2006 2.63093 30.9831 0.055542 24.5 0.055542ZM24.5 45.8889C20.2697 45.8889 16.1344 44.6344 12.617 42.2842C9.09958 39.934 6.35812 36.5935 4.73924 32.6852C3.12037 28.7769 2.6968 24.4763 3.52209 20.3272C4.34739 16.1782 6.38448 12.367 9.37577 9.37576C12.3671 6.38447 16.1782 4.34737 20.3272 3.52208C24.4763 2.69678 28.7769 3.12036 32.6852 4.73923C36.5935 6.3581 39.934 9.09957 42.2842 12.617C44.6345 16.1343 45.8889 20.2697 45.8889 24.5C45.8889 30.1727 43.6354 35.613 39.6242 39.6242C35.613 43.6354 30.1727 45.8889 24.5 45.8889Z" fill="white"/>
<path d="M35.4389 21.5667C36.9577 21.5667 38.1889 20.3354 38.1889 18.8167C38.1889 17.2979 36.9577 16.0667 35.4389 16.0667C33.9201 16.0667 32.6889 17.2979 32.6889 18.8167C32.6889 20.3354 33.9201 21.5667 35.4389 21.5667Z" fill="white"/>
<path d="M14.4319 21.5667C15.9507 21.5667 17.1819 20.3354 17.1819 18.8167C17.1819 17.2979 15.9507 16.0667 14.4319 16.0667C12.9132 16.0667 11.6819 17.2979 11.6819 18.8167C11.6819 20.3354 12.9132 21.5667 14.4319 21.5667Z" fill="white"/>
<path d="M24.7444 27.5555C22.5526 27.5559 20.3927 28.0803 18.4447 29.0848C16.4967 30.0894 14.8171 31.5451 13.5458 33.3305C13.3108 33.6608 13.2166 34.0708 13.2839 34.4705C13.3513 34.8702 13.5746 35.2268 13.9048 35.4618C14.2351 35.6968 14.6451 35.791 15.0448 35.7237C15.4445 35.6563 15.8011 35.433 16.0361 35.1028C17.013 33.7307 18.3001 32.6087 19.7926 31.8283C21.2852 31.0478 22.941 30.631 24.6252 30.6116C26.3094 30.5922 27.9743 30.9709 29.4844 31.7169C30.9945 32.4628 32.3071 33.5549 33.3153 34.9042C33.5584 35.2283 33.9203 35.4426 34.3214 35.4999C34.7225 35.5572 35.13 35.4528 35.4542 35.2097C35.7783 34.9666 35.9926 34.6047 36.0499 34.2035C36.1072 33.8024 36.0028 33.395 35.7597 33.0708C34.479 31.3582 32.8165 29.968 30.9043 29.0106C28.9921 28.0532 26.8829 27.5549 24.7444 27.5555Z" fill="white"/>
</svg>
